<?xml version="1.0" encoding="utf-8"?>
<svg viewBox="-1.904 200 205.8459 19.2751" xmlns="http://www.w3.org/2000/svg">
  <g transform="matrix(0.10353400558233261, 0, 0, 0.10353400558233261, -2.510206937789917, 200.00888061523438)" style="">
    <svg viewBox="0 0 396 37" data-background-color="#022544" preserveAspectRatio="xMidYMid meet" height="186" width="2000" xmlns="http://www.w3.org/2000/svg" transform="matrix(1, 0, 0, 1, 4.455636235849283, -4.858489679065855)">
      <g id="tight-bounds" transform="matrix(1,0,0,1,0.2400000000000091,-0.017034225921491952)">
        <svg viewBox="0 0 395.52 37.03406845184296" height="37.03406845184296" width="395.52">
          <g>
            <svg viewBox="0 0 455.5284353704036 42.652890516961094" height="37.03406845184296" width="395.52">
              <g>
                <rect width="2.783271841246429" height="37.035794949604416" x="49.93911158872149" y="2.808547783678339" fill="#f8f9fa" opacity="1" stroke-width="0" stroke="transparent" fill-opacity="1" class="rect-r$-0" data-fill-palette-color="primary" rx="1%" id="r$-0" data-palette-color="#f8f9fa"/>
              </g>
              <g transform="matrix(1,0,0,1,60.008435370403596,5.894864029478706)">
                <svg viewBox="0 0 395.52 30.863162458003682" height="30.863162458003682" width="395.52" transform="matrix(1, 0, 0, 1, 138.9504125410902, -49.347103714394336)">
                  <g id="textblocktransform">
                    <svg viewBox="0 0 395.52 30.863162458003682" height="30.863162458003682" width="395.52" id="textblock" transform="matrix(1, 0, 0, 1, 124.97518638194443, 20.506462130593263)">
                      <g>
                        <svg viewBox="0 0 395.52 30.863162458003682" height="30.863162458003682" width="395.52">
                          <g transform="matrix(1,0,0,1,0,0)">
                            <svg width="395.52" viewBox="3 -35.25 461.3 36" height="30.863162458003682" data-palette-color="#f8f9fa" style="transform-box: fill-box; transform-origin: 50% 50%;" transform="matrix(0.985543528327636, -0.1697336448297798, 0.15959656238555908, 0.9871825575828552, 3.583336081192101e-7, 0.0000034261245218658587)">
                              <path d="M17.05-18.3Q20.4-17.55 22.33-15.63 24.25-13.7 24.25-9.9L24.25-9.9Q24.25-4.9 20.88-2.45 17.5 0 11.7 0L11.7 0 3 0 3-34.55 10.55-34.55Q16.5-34.55 19.75-32.3 23-30.05 23-25.75L23-25.75Q23-22.85 21.38-20.95 19.75-19.05 17.05-18.3L17.05-18.3ZM11.2-29.85L9.35-29.85 9.35-20.3 11.5-20.3Q16.55-20.3 16.55-25.2L16.55-25.2Q16.55-27.65 15.28-28.75 14-29.85 11.2-29.85L11.2-29.85ZM11.75-4.8Q14.65-4.8 16.15-6.03 17.65-7.25 17.65-10.15L17.65-10.15Q17.65-13.05 16.25-14.43 14.85-15.8 11.9-15.8L11.9-15.8 9.35-15.8 9.35-4.8 11.75-4.8ZM39.85-35.25Q45.95-35.25 49.25-30.8 52.55-26.35 52.55-17.3L52.55-17.3Q52.55-8.35 49.25-3.8 45.95 0.75 39.85 0.75L39.85 0.75Q33.8 0.75 30.47-3.75 27.15-8.25 27.15-17.25L27.15-17.25Q27.15-26.15 30.47-30.7 33.8-35.25 39.85-35.25L39.85-35.25ZM39.85-30.45Q36.8-30.45 35.32-27.4 33.85-24.35 33.85-17.25L33.85-17.25Q33.85-10.1 35.35-7.13 36.85-4.15 39.85-4.15L39.85-4.15Q42.95-4.15 44.42-7.1 45.9-10.05 45.9-17.3L45.9-17.3Q45.9-24.4 44.4-27.43 42.9-30.45 39.85-30.45L39.85-30.45ZM68.75-35.25Q74.84-35.25 78.15-30.8 81.45-26.35 81.45-17.3L81.45-17.3Q81.45-8.35 78.15-3.8 74.84 0.75 68.75 0.75L68.75 0.75Q62.7 0.75 59.37-3.75 56.05-8.25 56.05-17.25L56.05-17.25Q56.05-26.15 59.37-30.7 62.7-35.25 68.75-35.25L68.75-35.25ZM68.75-30.45Q65.7-30.45 64.22-27.4 62.75-24.35 62.75-17.25L62.75-17.25Q62.75-10.1 64.25-7.13 65.75-4.15 68.75-4.15L68.75-4.15Q71.84-4.15 73.32-7.1 74.8-10.05 74.8-17.3L74.8-17.3Q74.8-24.4 73.3-27.43 71.8-30.45 68.75-30.45L68.75-30.45ZM86.19-34.55L92.54-34.55 92.54 0 86.19 0 86.19-34.55ZM102.29-34.55L108.74-34.55 99.34-18.9 109.49 0 102.49 0 92.79-18.45 102.29-34.55ZM120.89-35.25Q123.89-35.25 126.19-34.2 128.49-33.15 130.44-31.05L130.44-31.05 127.49-27.65Q125.94-29.05 124.47-29.75 122.99-30.45 121.34-30.45L121.34-30.45Q119.44-30.45 118.34-29.28 117.24-28.1 117.24-26.2L117.24-26.2Q117.24-24.3 118.39-23.1 119.54-21.9 122.89-20.6L122.89-20.6Q127.19-18.85 129.22-16.5 131.24-14.15 131.24-9.85L131.24-9.85Q131.24-6.9 129.89-4.48 128.54-2.05 126.02-0.65 123.49 0.75 120.14 0.75L120.14 0.75Q116.69 0.75 114.14-0.48 111.59-1.7 109.49-3.95L109.49-3.95 112.69-7.45Q114.49-5.85 116.14-5 117.79-4.15 119.74-4.15L119.74-4.15Q122.04-4.15 123.32-5.58 124.59-7 124.59-9.45L124.59-9.45Q124.59-11.6 123.47-12.98 122.34-14.35 119.29-15.5L119.29-15.5Q114.69-17.35 112.67-19.75 110.64-22.15 110.64-25.75L110.64-25.75Q110.64-28.5 111.97-30.65 113.29-32.8 115.64-34.02 117.99-35.25 120.89-35.25L120.89-35.25ZM161.44-34.55L163.64 0 157.59 0 156.99-14.6Q156.69-22.6 156.69-26L156.69-26 156.74-28.6 151.99-3.8 145.99-3.8 141.04-28.65Q141.09-27.15 141.09-24.05L141.09-24.05Q141.09-18.8 140.89-14.4L140.89-14.4 140.34 0 134.39 0 136.59-34.55 144.59-34.55 149.09-10.2 153.29-34.55 161.44-34.55ZM190.54 0L184.09 0 182.39-8.1 173.49-8.1 171.84 0 165.49 0 174.19-34.55 181.89-34.55 190.54 0ZM177.94-29.7L174.49-12.9 181.44-12.9 177.94-29.7ZM215.78 0L208.93 0 202.83-13.95 202.23-13.95 199.78-13.95 199.78 0 193.43 0 193.43-34.55 201.58-34.55Q214.08-34.55 214.08-24.4L214.08-24.4Q214.08-21.25 212.68-18.82 211.28-16.4 208.48-15.15L208.48-15.15 215.78 0ZM201.88-18.55Q204.83-18.55 206.16-19.95 207.48-21.35 207.48-24.4L207.48-24.4Q207.48-27.25 206.11-28.58 204.73-29.9 201.58-29.9L201.58-29.9 199.78-29.9 199.78-18.55 201.88-18.55ZM216.38-34.55L237.93-34.55 237.23-29.55 230.13-29.55 230.13 0 223.78 0 223.78-29.55 216.38-29.55 216.38-34.55ZM257.18 0L250.83 0 250.83-34.55 267.53-34.55 266.83-29.8 257.18-29.8 257.18-19.25 265.58-19.25 265.58-14.5 257.18-14.5 257.18 0ZM270.97-34.55L277.32-34.55 277.32 0 270.97 0 270.97-34.55ZM304.92-34.55L304.92 0 296.82 0 288.07-28.3Q288.47-24.7 288.7-21.68 288.92-18.65 288.92-14.5L288.92-14.5 288.92 0 283.32 0 283.32-34.55 291.37-34.55 300.12-6.25Q299.82-8.05 299.55-11.35 299.27-14.65 299.27-18.05L299.27-18.05 299.27-34.55 304.92-34.55ZM332.87 0L326.42 0 324.72-8.1 315.82-8.1 314.17 0 307.82 0 316.52-34.55 324.22-34.55 332.87 0ZM320.27-29.7L316.82-12.9 323.77-12.9 320.27-29.7ZM357.37-34.55L357.37 0 349.27 0 340.52-28.3Q340.92-24.7 341.14-21.68 341.37-18.65 341.37-14.5L341.37-14.5 341.37 0 335.77 0 335.77-34.55 343.82-34.55 352.57-6.25Q352.27-8.05 351.99-11.35 351.72-14.65 351.72-18.05L351.72-18.05 351.72-34.55 357.37-34.55ZM374.86-35.25Q377.51-35.25 379.54-34.38 381.56-33.5 383.46-31.7L383.46-31.7 380.41-28.05Q379.11-29.25 377.89-29.83 376.66-30.4 375.21-30.4L375.21-30.4Q372.21-30.4 370.51-27.4 368.81-24.4 368.81-17.35L368.81-17.35Q368.81-10.4 370.51-7.38 372.21-4.35 375.31-4.35L375.31-4.35Q376.86-4.35 378.01-4.98 379.16-5.6 380.71-6.9L380.71-6.9 383.76-3.4Q382.16-1.6 379.91-0.43 377.66 0.75 374.86 0.75L374.86 0.75Q369.01 0.75 365.56-3.8 362.11-8.35 362.11-17.35L362.11-17.35Q362.11-23.3 363.76-27.3 365.41-31.3 368.29-33.27 371.16-35.25 374.86-35.25L374.86-35.25ZM387.16-34.55L393.51-34.55 393.51 0 387.16 0 387.16-34.55ZM421.46 0L415.01 0 413.31-8.1 404.41-8.1 402.76 0 396.41 0 405.11-34.55 412.81-34.55 421.46 0ZM408.86-29.7L405.41-12.9 412.36-12.9 408.86-29.7ZM424.36-34.55L430.71-34.55 430.71-5.25 441.86-5.25 441.16 0 424.36 0 424.36-34.55ZM453.95-35.25Q456.95-35.25 459.25-34.2 461.55-33.15 463.5-31.05L463.5-31.05 460.55-27.65Q459-29.05 457.53-29.75 456.05-30.45 454.4-30.45L454.4-30.45Q452.5-30.45 451.4-29.28 450.3-28.1 450.3-26.2L450.3-26.2Q450.3-24.3 451.45-23.1 452.6-21.9 455.95-20.6L455.95-20.6Q460.25-18.85 462.28-16.5 464.3-14.15 464.3-9.85L464.3-9.85Q464.3-6.9 462.95-4.48 461.6-2.05 459.08-0.65 456.55 0.75 453.2 0.75L453.2 0.75Q449.75 0.75 447.2-0.48 444.65-1.7 442.55-3.95L442.55-3.95 445.75-7.45Q447.55-5.85 449.2-5 450.85-4.15 452.8-4.15L452.8-4.15Q455.1-4.15 456.38-5.58 457.65-7 457.65-9.45L457.65-9.45Q457.65-11.6 456.53-12.98 455.4-14.35 452.35-15.5L452.35-15.5Q447.75-17.35 445.73-19.75 443.7-22.15 443.7-25.75L443.7-25.75Q443.7-28.5 445.03-30.65 446.35-32.8 448.7-34.02 451.05-35.25 453.95-35.25L453.95-35.25Z" opacity="1" transform="matrix(1,0,0,1,0,0)" fill="#f8f9fa" class="wordmark-text-0" data-fill-palette-color="primary" id="text-0"/>
                            </svg>
                          </g>
                        </svg>
                      </g>
                    </svg>
                  </g>
                </svg>
              </g>
              <g>
                <svg viewBox="0 0 42.65305964828581 42.652890516961094" height="42.652890516961094" width="42.65305964828581">
                  <g>
                    <svg xmlns="http://www.w3.org/2000/svg" version="1.1" x="0" y="0" viewBox="1.906000000000008 1.906 252.18900000000002 252.18800000000002" enable-background="new 0 0 256 256" height="42.652890516961094" width="42.65305964828581" class="icon-icon-0" data-fill-palette-color="accent" id="icon-0">
                      <g fill="#ffdc00" data-fill-palette-color="accent">
                        <g fill="#ffdc00" data-fill-palette-color="accent">
                          <g fill="#ffdc00" data-fill-palette-color="accent">
                            <path fill="#ffdc00" d="M203.026 185.688v29.159c0 7.172-5.871 13.043-13.043 13.043h-78.178v13.713h78.178c14.737 0 26.756-12.018 26.756-26.756v-29.869c-3.468 0.512-7.054 0.788-10.679 0.788C205.036 185.767 204.051 185.727 203.026 185.688zM189.983 1.906H42.177c-14.698 0-26.716 11.979-26.716 26.756v93.073h13.713V28.661c0-7.172 5.832-13.003 13.003-13.003h147.806c7.172 0 13.043 5.832 13.043 13.003V57.86c1.025-0.039 2.01-0.079 3.034-0.079 3.625 0 7.211 0.276 10.679 0.788V28.661C216.739 13.885 204.72 1.906 189.983 1.906z" data-fill-palette-color="accent"/>
                            <g fill="#ffdc00" data-fill-palette-color="accent">
                              <path fill="#ffdc00" d="M222.271 135.553c-0.72 5.418-4.19 8.593-9.238 10.184-1.207 0.384-2.476 0.569-3.895 0.892v6.275h-5.233v-6.22c-10.431-2.27-14.964-7.105-14.161-15.067h9.107c0.075 0.555 0.165 1.097 0.226 1.639 0.384 3.415 2.675 5.658 6.083 5.911 0.665 0.055 1.33 0.055 1.996 0.027 2.846-0.096 4.732-1.399 5.459-3.744 0.857-2.736 0.117-5.685-2.126-7.139-1.742-1.132-3.744-1.865-5.61-2.805-2.908-1.447-6.055-2.572-8.661-4.437-7.612-5.459-6.522-17.501 1.872-21.712 1.893-0.946 4.046-1.399 6.378-2.181v-6.536h5.198v6.885c4.526 0.837 8.401 2.613 10.801 6.686 1.296 2.195 1.989 5.356 1.714 7.9h-9.169c-0.233-1.193-0.343-2.352-0.706-3.436-0.864-2.613-2.949-3.923-5.898-3.875-2.853 0.048-4.499 1.118-5.267 3.443-0.933 2.819-0.322 5.767 1.858 7.187 1.872 1.228 3.991 2.085 6.021 3.079 2.572 1.262 5.281 2.291 7.708 3.786C221.668 125.335 222.998 130.142 222.271 135.553z" data-fill-palette-color="accent"/>
                            </g>
                            <path fill="#ffdc00" d="M206.055 73.733c-26.488 0-48.04 21.55-48.04 48.04s21.551 48.038 48.04 48.038 48.04-21.548 48.04-48.038S232.543 73.733 206.055 73.733zM206.055 162.466c-22.439 0-40.695-18.256-40.695-40.693 0-22.439 18.256-40.695 40.695-40.695s40.695 18.256 40.695 40.695C246.75 144.21 228.494 162.466 206.055 162.466z" data-fill-palette-color="accent"/>
                            <g fill="#ffdc00" data-fill-palette-color="accent">
                              <polygon fill="#ffdc00" points="31.43,244.709 31.43,244.687 31.429,244.687     " data-fill-palette-color="accent"/>
                              <path fill="#ffdc00" d="M99.058 147.234c0-6.234-2.277-10.402-6.581-12.487-2.027-0.965-4.497-1.525-7.449-1.525-23.024-0.019-46.048-0.019-69.092 0-2.933 0-5.365 0.54-7.411 1.525-4.323 2.065-6.6 6.253-6.6 12.487-0.019 17.485-0.019 22.773-0.019 40.258 0 17.562 0 35.144 0.019 52.726 0 8.993 4.844 13.857 13.876 13.857 11.56 0.019 23.121 0.019 34.681 0.019 11.58 0 23.14 0 34.7-0.019 9.013 0 13.857-4.863 13.876-13.857 0.019-17.582 0-35.163 0-52.726C99.058 170.008 99.077 164.72 99.058 147.234zM42.23 236.551c-1.004 0.027-2.032 0.035-3.061 0.035l-2.676-0.008 0.002 1.193c0.004 1.458 0.008 2.917-0.029 4.371-0.071 2.628-2.19 4.537-5.035 4.537l-0.208-0.004c-2.79-0.069-4.724-1.901-4.797-4.556-0.021-0.893-0.019-1.766-0.015-2.644l0.002-2.898h-5.749c-1.458-0.008-2.688-0.485-3.569-1.381-0.883-0.893-1.343-2.132-1.333-3.579 0-2.89 1.947-4.845 4.845-4.845 1.768-0.015 3.554-0.015 5.339-0.015l0.477-0.181c-0.008-1.762-0.012-3.452 0.019-5.153 0.021-2.467 1.378-4.198 3.723-4.725 3.386-0.781 6.295 1.547 6.315 4.972 0.01 1.532 0.008 3.063 0.004 4.637l-0.002 0.466 3.708-0.012 2.007 0.012c2.848 0.05 4.926 2.066 4.949 4.799C47.19 234.4 45.124 236.501 42.23 236.551zM38.94 193.094c1.174 1.166 2.347 2.336 3.496 3.529 1.826 1.897 2.074 4.31 0.648 6.295-0.985 1.378-2.438 2.17-3.985 2.17-1.289 0-2.565-0.558-3.592-1.562-1.21-1.193-2.394-2.417-3.611-3.675l-0.387-0.4-3.756 3.806c-1.226 1.247-2.49 1.508-3.332 1.508-0.723 0-1.443-0.185-2.143-0.55-1.734-0.912-2.878-2.482-3.071-4.194-0.179-1.597 0.456-3.105 1.793-4.252 1.118-0.977 2.19-2.032 3.296-3.117l0.198-0.192c-1.482-1.443-2.875-2.801-4.243-4.191-0.97-0.981-1.495-2.217-1.472-3.471 0.021-1.251 0.558-2.432 1.549-3.409 1.957-1.959 4.835-1.986 6.853-0.031 0.741 0.708 1.466 1.439 2.195 2.174l1.98 1.974c1.233-1.274 2.419-2.501 3.646-3.694 1.33-1.301 2.647-1.578 3.517-1.578 0.956 0 2.384 0.327 3.762 1.87 1.909 2.113 1.839 4.722-0.19 6.803-1.051 1.07-2.12 2.109-3.2 3.159l-0.494 0.485L38.94 193.094zM79.152 190.855c-2.778 0.015-5.57 0.015-8.36 0.015-2.834 0-5.653 0-8.487-0.015-2.734 0-4.666-1.997-4.687-4.856-0.012-1.412 0.479-2.698 1.387-3.61 0.854-0.866 2.026-1.339 3.296-1.339h16.835c1.466 0 2.721 0.485 3.623 1.405 0.889 0.9 1.347 2.128 1.324 3.544C84.062 188.988 82.173 190.855 79.152 190.855zM84.03 199.513c0.179 1.551-0.2 2.913-1.095 3.929-0.631 0.723-1.814 1.585-3.856 1.616-1.126 0.023-2.265 0.031-3.406 0.031l-13.195-0.015c-2.738 0-3.885-1.624-4.331-2.594-0.779-1.697-0.671-3.675 0.281-5.16 0.885-1.381 2.397-2.174 4.15-2.174 1.693 0.058 3.184 0.073 4.675 0.073l9.626-0.038c0.829 0 1.659 0.012 2.484 0.042C82 195.338 83.741 196.943 84.03 199.513zM80.513 236.566l-18.211 0.012h-0.013c-2.717-0.019-4.631-2.039-4.656-4.914-0.012-1.401 0.471-2.667 1.358-3.559 0.852-0.858 2.038-1.331 3.34-1.331 2.998-0.015 6.022-0.015 9.045-0.015l9.166 0.015c2.78 0.023 4.724 2.016 4.724 4.845C85.244 234.604 83.377 236.543 80.513 236.566zM87.575 167.209H13.543l-1.698-22.483h77.294L87.575 167.209z" data-fill-palette-color="accent"/>
                            </g>
                          </g>
                          <g fill="#ffdc00" data-fill-palette-color="accent">
                            <path fill="#ffdc00" d="M60.072 60.151h112.057c2.505 0 4.545-2.039 4.545-4.545 0-2.505-2.039-4.541-4.545-4.541H60.072c-2.505 0-4.545 2.036-4.545 4.541C55.527 58.111 57.567 60.151 60.072 60.151z" data-fill-palette-color="accent"/>
                          </g>
                          <g fill="#ffdc00" data-fill-palette-color="accent">
                            <path fill="#ffdc00" d="M159.322 87.26c-2.128 2.837-3.98 5.911-5.556 9.142H60.062c-2.483 0-4.531-2.049-4.531-4.531 0-2.522 2.049-4.61 4.531-4.61H159.322z" data-fill-palette-color="accent"/>
                          </g>
                        </g>
                      </g>
                    </svg>
                  </g>
                </svg>
              </g>
            </svg>
          </g>
        </svg>
      </g>
    </svg>
  </g>
</svg>