<svg xmlns="http://www.w3.org/2000/svg" width="120" height="120" viewBox="1.5 -1.8 8 10">
  <style type="text/css">
    .st0{display:none;}
    .st1{display:inline;}
    .st2{fill:#282f49;stroke:#282f49;stroke-width:0.06;}
  </style>
  <g>
    <path class="st2" d="M6.9217 2.9452c-0.0166,0.0436 -0.0655,0.0655 -0.1091,0.0489 -0.0436,-0.0166 -0.0655,-0.0655 -0.0489,-0.1091 0.0204,-0.0537 0.0192,-0.1111 0.0003,-0.1613 -0.0191,-0.0503 -0.0561,-0.0941 -0.1068,-0.1206 -0.0506,-0.0266 -0.1077,-0.0321 -0.16,-0.0192 -0.0522,0.0131 -0.1,0.0447 -0.1323,0.092 -0.0327,0.0478 -0.0444,0.105 -0.0316,0.1657 0.0133,0.0636 0.0532,0.1328 0.1223,0.2027l0.0043 0.0047c0.0902,0.0928 0.1432,0.1895 0.1629,0.2828 0.0225,0.1074 0.0015,0.2092 -0.0574,0.2953 -0.0567,0.0827 -0.14,0.1378 -0.2313,0.1605 -0.0637,0.0158 -0.1316,0.0157 -0.1972,-0.0018l-0.0532 0.1025c-0.0213,0.0414 -0.0724,0.0577 -0.1138,0.0364 -0.0414,-0.0213 -0.0577,-0.0724 -0.0364,-0.1138l0.0531 -0.1025c-0.0539,-0.0444 -0.0941,-0.1016 -0.118,-0.1649 -0.0331,-0.0877 -0.0352,-0.1875 0.0004,-0.281 0.0166,-0.0436 0.0655,-0.0655 0.1091,-0.0489 0.0436,0.0166 0.0655,0.0655 0.0489,0.1091 -0.0205,0.0538 -0.0193,0.1111 -0.0004,0.1612 0.0191,0.0505 0.0561,0.0942 0.1067,0.1207 0.0508,0.0265 0.1079,0.032 0.1604,0.019 0.0521,-0.0129 0.0997,-0.0445 0.1321,-0.0917 0.0327,-0.0478 0.0443,-0.105 0.0316,-0.1657 -0.0132,-0.0626 -0.0516,-0.1305 -0.1182,-0.1991l-0.004 -0.0038c-0.0928,-0.0938 -0.1473,-0.1923 -0.1673,-0.2873 -0.0227,-0.1075 -0.0015,-0.2093 0.0574,-0.2953 0.0566,-0.0828 0.1398,-0.138 0.2309,-0.1607 0.064,-0.0158 0.132,-0.0157 0.1975,0.0019l0.0532 -0.1025c0.0213,-0.0414 0.0724,-0.0577 0.1138,-0.0364 0.0414,0.0213 0.0577,0.0724 0.0364,0.1138l-0.0532 0.1025c0.0539,0.0444 0.0942,0.1016 0.1181,0.1648 0.0331,0.0878 0.0353,0.1876 -0.0003,0.2811zm-3.4891 -0.3691c0.0166,-0.0434 0.0654,-0.0652 0.1088,-0.0486 0.0434,0.0166 0.0652,0.0654 0.0486,0.1088l-0.6663 1.7352c-0.0166,0.0434 -0.0654,0.0652 -0.1088,0.0486 -0.0434,-0.0166 -0.0652,-0.0654 -0.0486,-0.1088l0.6663 -1.7352zm-1.2575 2.5846c-0.0462,0.006 -0.0886,-0.0266 -0.0946,-0.0728 -0.006,-0.0462 0.0266,-0.0886 0.0728,-0.0946l2.4074 -0.3161c0.0462,-0.006 0.0886,0.0266 0.0946,0.0728 0.006,0.0462 -0.0266,0.0886 -0.0728,0.0946l-2.4074 0.3161zm0.2789 2.124c-0.0462,0.006 -0.0886,-0.0266 -0.0946,-0.0728 -0.006,-0.0462 0.0266,-0.0886 0.0728,-0.0946l2.4074 -0.3162c0.0462,-0.006 0.0886,0.0266 0.0946,0.0728 0.006,0.0462 -0.0266,0.0886 -0.0728,0.0946l-2.4074 0.3162zm-0.4368 -0.4828c-0.0462,0.006 -0.0886,-0.0266 -0.0946,-0.0728 -0.006,-0.0462 0.0266,-0.0886 0.0728,-0.0946l3.1415 -0.4126c0.0462,-0.006 0.0886,0.0266 0.0946,0.0728 0.006,0.0462 -0.0266,0.0886 -0.0728,0.0946l-3.1415 0.4126zm0.2974 -0.5791c-0.0462,0.006 -0.0886,-0.0266 -0.0946,-0.0728 -0.006,-0.0462 0.0266,-0.0886 0.0728,-0.0946l2.4074 -0.3163c0.0462,-0.006 0.0886,0.0266 0.0946,0.0728 0.006,0.0462 -0.0266,0.0886 -0.0728,0.0946l-2.4074 0.3163zm-0.4368 -0.4829c-0.0462,0.006 -0.0886,-0.0266 -0.0946,-0.0728 -0.006,-0.0462 0.0266,-0.0886 0.0728,-0.0946l3.1414 -0.4126c0.0462,-0.006 0.0886,0.0266 0.0946,0.0728 0.006,0.0462 -0.0266,0.0886 -0.0728,0.0946l-3.1414 0.4126zm0.7658 -3.1048c0.1058,-0.0133 0.2075,0.0174 0.2859,0.0775 0.0792,0.0607 0.1354,0.152 0.1494,0.2588 0.014,0.1066 -0.0166,0.2092 -0.0772,0.2883 -0.0608,0.0792 -0.1521,0.1354 -0.2589,0.1494l-0.0025 0.0003c-0.1055,0.013 -0.2072,-0.0174 -0.2857,-0.0776 -0.0791,-0.0607 -0.1353,-0.152 -0.1494,-0.2587l-0.0004 -0.0032c-0.0129,-0.1056 0.0177,-0.207 0.0777,-0.2852 0.0609,-0.0793 0.152,-0.1352 0.2587,-0.1493l0.0024 -0.0003zm0.1833 0.2117c-0.0433,-0.0333 -0.0994,-0.0507 -0.1577,-0.0447l-0.0121 0.0016c-0.0576,0.0092 -0.1071,0.0403 -0.1404,0.0836 -0.0334,0.0434 -0.0507,0.0995 -0.0448,0.1576l0.0016 0.0124c0.0092,0.0576 0.0404,0.107 0.0837,0.1403 0.0435,0.0336 0.0994,0.0507 0.1576,0.0448l0.0122 -0.0016c0.0578,-0.0091 0.1072,-0.0404 0.1405,-0.0837 0.0344,-0.045 0.0519,-0.1034 0.044,-0.1639 -0.0079,-0.0603 -0.0397,-0.112 -0.0846,-0.1464zm0.8145 0.8585l-0.0121 0.0016c-0.0578,0.0091 -0.1073,0.0404 -0.1405,0.0837 -0.0346,0.045 -0.052,0.1033 -0.0441,0.1637 0.0079,0.0604 0.0398,0.1122 0.0846,0.1465 0.0451,0.0346 0.1034,0.052 0.1638,0.0441 0.0604,-0.0079 0.1121,-0.0398 0.1465,-0.0846 0.0333,-0.0435 0.0507,-0.0994 0.0447,-0.1578l-0.0016 -0.0121c-0.0091,-0.0576 -0.0403,-0.107 -0.0836,-0.1403 -0.0435,-0.0333 -0.0994,-0.0507 -0.1577,-0.0448zm-0.0254 -0.167c0.1057,-0.0132 0.2073,0.0175 0.2857,0.0776 0.079,0.0607 0.1352,0.152 0.1493,0.2586l0.0003 0.0024c0.0133,0.1058 -0.0173,0.2074 -0.0775,0.286 -0.0607,0.0791 -0.152,0.1354 -0.2589,0.1494 -0.1067,0.014 -0.2091,-0.0166 -0.2882,-0.0773 -0.0792,-0.0607 -0.1354,-0.1521 -0.1494,-0.2589 -0.014,-0.1064 0.0166,-0.209 0.0773,-0.2881 0.0607,-0.0792 0.1521,-0.1354 0.2589,-0.1494l0.0025 -0.0003zm-2.2102 -1.4563l1.5144 -0.1989 0.5482 -1.0573c0.0943,-0.1818 0.2543,-0.3087 0.4358,-0.3662 0.1813,-0.0575 0.3851,-0.0461 0.5666,0.048l2.8529 1.4793c0.1818,0.0943 0.3087,0.2543 0.3662,0.4358 0.0575,0.1815 0.046,0.3852 -0.048,0.5667l-1.7297 3.336 0.0584 0.4449c0.0271,0.2074 -0.033,0.4075 -0.1518,0.5623 -0.1186,0.1549 -0.2965,0.2647 -0.5044,0.292l-3.1286 0.4109c-0.2077,0.0273 -0.4077,-0.0328 -0.5623,-0.1515l-0.0054 -0.0045c-0.1519,-0.1189 -0.2596,-0.2949 -0.2866,-0.5001l-0.5837 -4.4453c-0.0265,-0.2069 0.0336,-0.406 0.1518,-0.56 0.1188,-0.1548 0.2968,-0.2645 0.5044,-0.2919l0.0018 -0.0002zm1.7186 -0.2257l1.4083 -0.185c0.2075,-0.0272 0.4076,0.033 0.5624,0.1518 0.1549,0.1186 0.2648,0.2965 0.292,0.5044l0.4866 3.705 1.618 -3.1205c0.0726,-0.1402 0.0813,-0.2978 0.0368,-0.4383 -0.0445,-0.1405 -0.1423,-0.264 -0.2822,-0.3366l-2.8529 -1.4793c-0.14,-0.0726 -0.2978,-0.0813 -0.4382,-0.0368 -0.1405,0.0445 -0.264,0.1423 -0.3366,0.2822l-0.4942 0.9531zm1.4301 -0.0176l-3.1351 0.4118c-0.1585,0.0227 -0.2944,0.1074 -0.3856,0.2262 -0.0913,0.119 -0.1381,0.2721 -0.1191,0.4312l0.5842 4.4497c0.0209,0.1595 0.1045,0.2964 0.2226,0.3889l0.0046 0.0033c0.1206,0.0926 0.2764,0.1395 0.4379,0.1183l3.1286 -0.4109c0.1614,-0.0212 0.2998,-0.1067 0.3922,-0.2271 0.0928,-0.1204 0.1395,-0.2763 0.1184,-0.438l-0.5835 -4.4428c-0.0211,-0.1614 -0.1067,-0.2998 -0.2271,-0.3922 -0.1204,-0.0928 -0.2762,-0.1396 -0.4381,-0.1184z"/>
  </g>
</svg>