<?xml version="1.0" encoding="utf-8"?>
<svg viewBox="-1.904 191.1836 28.0917 28.0916" xmlns="http://www.w3.org/2000/svg">
  <g transform="matrix(0.1508910059928894, 0, 0, 0.1508910059928894, -2.7874860763549787, 191.19650268554688)" style="">
    <svg viewBox="0 0 396 37" data-background-color="#022544" preserveAspectRatio="xMidYMid meet" height="186" width="2000" xmlns="http://www.w3.org/2000/svg" transform="matrix(1, 0, 0, 1, 4.455636235849283, -4.858489679065855)">
      <g id="tight-bounds" transform="matrix(1,0,0,1,0.2400000000000091,-0.017034225921491952)">
        <svg viewBox="0 0 395.52 37.03406845184296" height="37.03406845184296" width="395.52">
          <g>
            <svg viewBox="0 0 455.5284353704036 42.652890516961094" height="37.03406845184296" width="395.52">
              <g>
                <svg viewBox="0 0 42.65305964828581 42.652890516961094" height="42.652890516961094" width="42.65305964828581">
                  <g>
                    <svg xmlns="http://www.w3.org/2000/svg" version="1.1" x="0" y="0" viewBox="1.906000000000008 1.906 252.18900000000002 252.18800000000002" enable-background="new 0 0 256 256" height="42.652890516961094" width="42.65305964828581" class="icon-icon-0" data-fill-palette-color="accent" id="icon-0">
                      <g fill="#ffdc00" data-fill-palette-color="accent">
                        <g fill="#ffdc00" data-fill-palette-color="accent">
                          <g fill="#ffdc00" data-fill-palette-color="accent">
                            <path fill="#ffdc00" d="M203.026 185.688v29.159c0 7.172-5.871 13.043-13.043 13.043h-78.178v13.713h78.178c14.737 0 26.756-12.018 26.756-26.756v-29.869c-3.468 0.512-7.054 0.788-10.679 0.788C205.036 185.767 204.051 185.727 203.026 185.688zM189.983 1.906H42.177c-14.698 0-26.716 11.979-26.716 26.756v93.073h13.713V28.661c0-7.172 5.832-13.003 13.003-13.003h147.806c7.172 0 13.043 5.832 13.043 13.003V57.86c1.025-0.039 2.01-0.079 3.034-0.079 3.625 0 7.211 0.276 10.679 0.788V28.661C216.739 13.885 204.72 1.906 189.983 1.906z" data-fill-palette-color="accent"/>
                            <g fill="#ffdc00" data-fill-palette-color="accent">
                              <path fill="#ffdc00" d="M222.271 135.553c-0.72 5.418-4.19 8.593-9.238 10.184-1.207 0.384-2.476 0.569-3.895 0.892v6.275h-5.233v-6.22c-10.431-2.27-14.964-7.105-14.161-15.067h9.107c0.075 0.555 0.165 1.097 0.226 1.639 0.384 3.415 2.675 5.658 6.083 5.911 0.665 0.055 1.33 0.055 1.996 0.027 2.846-0.096 4.732-1.399 5.459-3.744 0.857-2.736 0.117-5.685-2.126-7.139-1.742-1.132-3.744-1.865-5.61-2.805-2.908-1.447-6.055-2.572-8.661-4.437-7.612-5.459-6.522-17.501 1.872-21.712 1.893-0.946 4.046-1.399 6.378-2.181v-6.536h5.198v6.885c4.526 0.837 8.401 2.613 10.801 6.686 1.296 2.195 1.989 5.356 1.714 7.9h-9.169c-0.233-1.193-0.343-2.352-0.706-3.436-0.864-2.613-2.949-3.923-5.898-3.875-2.853 0.048-4.499 1.118-5.267 3.443-0.933 2.819-0.322 5.767 1.858 7.187 1.872 1.228 3.991 2.085 6.021 3.079 2.572 1.262 5.281 2.291 7.708 3.786C221.668 125.335 222.998 130.142 222.271 135.553z" data-fill-palette-color="accent"/>
                            </g>
                            <path fill="#ffdc00" d="M206.055 73.733c-26.488 0-48.04 21.55-48.04 48.04s21.551 48.038 48.04 48.038 48.04-21.548 48.04-48.038S232.543 73.733 206.055 73.733zM206.055 162.466c-22.439 0-40.695-18.256-40.695-40.693 0-22.439 18.256-40.695 40.695-40.695s40.695 18.256 40.695 40.695C246.75 144.21 228.494 162.466 206.055 162.466z" data-fill-palette-color="accent"/>
                            <g fill="#ffdc00" data-fill-palette-color="accent">
                              <polygon fill="#ffdc00" points="31.43,244.709 31.43,244.687 31.429,244.687     " data-fill-palette-color="accent"/>
                              <path fill="#ffdc00" d="M99.058 147.234c0-6.234-2.277-10.402-6.581-12.487-2.027-0.965-4.497-1.525-7.449-1.525-23.024-0.019-46.048-0.019-69.092 0-2.933 0-5.365 0.54-7.411 1.525-4.323 2.065-6.6 6.253-6.6 12.487-0.019 17.485-0.019 22.773-0.019 40.258 0 17.562 0 35.144 0.019 52.726 0 8.993 4.844 13.857 13.876 13.857 11.56 0.019 23.121 0.019 34.681 0.019 11.58 0 23.14 0 34.7-0.019 9.013 0 13.857-4.863 13.876-13.857 0.019-17.582 0-35.163 0-52.726C99.058 170.008 99.077 164.72 99.058 147.234zM42.23 236.551c-1.004 0.027-2.032 0.035-3.061 0.035l-2.676-0.008 0.002 1.193c0.004 1.458 0.008 2.917-0.029 4.371-0.071 2.628-2.19 4.537-5.035 4.537l-0.208-0.004c-2.79-0.069-4.724-1.901-4.797-4.556-0.021-0.893-0.019-1.766-0.015-2.644l0.002-2.898h-5.749c-1.458-0.008-2.688-0.485-3.569-1.381-0.883-0.893-1.343-2.132-1.333-3.579 0-2.89 1.947-4.845 4.845-4.845 1.768-0.015 3.554-0.015 5.339-0.015l0.477-0.181c-0.008-1.762-0.012-3.452 0.019-5.153 0.021-2.467 1.378-4.198 3.723-4.725 3.386-0.781 6.295 1.547 6.315 4.972 0.01 1.532 0.008 3.063 0.004 4.637l-0.002 0.466 3.708-0.012 2.007 0.012c2.848 0.05 4.926 2.066 4.949 4.799C47.19 234.4 45.124 236.501 42.23 236.551zM38.94 193.094c1.174 1.166 2.347 2.336 3.496 3.529 1.826 1.897 2.074 4.31 0.648 6.295-0.985 1.378-2.438 2.17-3.985 2.17-1.289 0-2.565-0.558-3.592-1.562-1.21-1.193-2.394-2.417-3.611-3.675l-0.387-0.4-3.756 3.806c-1.226 1.247-2.49 1.508-3.332 1.508-0.723 0-1.443-0.185-2.143-0.55-1.734-0.912-2.878-2.482-3.071-4.194-0.179-1.597 0.456-3.105 1.793-4.252 1.118-0.977 2.19-2.032 3.296-3.117l0.198-0.192c-1.482-1.443-2.875-2.801-4.243-4.191-0.97-0.981-1.495-2.217-1.472-3.471 0.021-1.251 0.558-2.432 1.549-3.409 1.957-1.959 4.835-1.986 6.853-0.031 0.741 0.708 1.466 1.439 2.195 2.174l1.98 1.974c1.233-1.274 2.419-2.501 3.646-3.694 1.33-1.301 2.647-1.578 3.517-1.578 0.956 0 2.384 0.327 3.762 1.87 1.909 2.113 1.839 4.722-0.19 6.803-1.051 1.07-2.12 2.109-3.2 3.159l-0.494 0.485L38.94 193.094zM79.152 190.855c-2.778 0.015-5.57 0.015-8.36 0.015-2.834 0-5.653 0-8.487-0.015-2.734 0-4.666-1.997-4.687-4.856-0.012-1.412 0.479-2.698 1.387-3.61 0.854-0.866 2.026-1.339 3.296-1.339h16.835c1.466 0 2.721 0.485 3.623 1.405 0.889 0.9 1.347 2.128 1.324 3.544C84.062 188.988 82.173 190.855 79.152 190.855zM84.03 199.513c0.179 1.551-0.2 2.913-1.095 3.929-0.631 0.723-1.814 1.585-3.856 1.616-1.126 0.023-2.265 0.031-3.406 0.031l-13.195-0.015c-2.738 0-3.885-1.624-4.331-2.594-0.779-1.697-0.671-3.675 0.281-5.16 0.885-1.381 2.397-2.174 4.15-2.174 1.693 0.058 3.184 0.073 4.675 0.073l9.626-0.038c0.829 0 1.659 0.012 2.484 0.042C82 195.338 83.741 196.943 84.03 199.513zM80.513 236.566l-18.211 0.012h-0.013c-2.717-0.019-4.631-2.039-4.656-4.914-0.012-1.401 0.471-2.667 1.358-3.559 0.852-0.858 2.038-1.331 3.34-1.331 2.998-0.015 6.022-0.015 9.045-0.015l9.166 0.015c2.78 0.023 4.724 2.016 4.724 4.845C85.244 234.604 83.377 236.543 80.513 236.566zM87.575 167.209H13.543l-1.698-22.483h77.294L87.575 167.209z" data-fill-palette-color="accent"/>
                            </g>
                          </g>
                          <g fill="#ffdc00" data-fill-palette-color="accent">
                            <path fill="#ffdc00" d="M60.072 60.151h112.057c2.505 0 4.545-2.039 4.545-4.545 0-2.505-2.039-4.541-4.545-4.541H60.072c-2.505 0-4.545 2.036-4.545 4.541C55.527 58.111 57.567 60.151 60.072 60.151z" data-fill-palette-color="accent"/>
                          </g>
                          <g fill="#ffdc00" data-fill-palette-color="accent">
                            <path fill="#ffdc00" d="M159.322 87.26c-2.128 2.837-3.98 5.911-5.556 9.142H60.062c-2.483 0-4.531-2.049-4.531-4.531 0-2.522 2.049-4.61 4.531-4.61H159.322z" data-fill-palette-color="accent"/>
                          </g>
                        </g>
                      </g>
                    </svg>
                  </g>
                </svg>
              </g>
            </svg>
          </g>
        </svg>
      </g>
    </svg>
  </g>
</svg>