<?xml version="1.0" standalone="no"?>
<!DOCTYPE svg PUBLIC "-//W3C//DTD SVG 20010904//EN"
 "http://www.w3.org/TR/2001/REC-SVG-20010904/DTD/svg10.dtd">
<svg version="1.0" xmlns="http://www.w3.org/2000/svg"
 width="700.000000pt" height="700.000000pt" viewBox="0 0 700.000000 700.000000"
 preserveAspectRatio="xMidYMid meet">
<metadata>
Created by potrace 1.14, written by Peter Selinger 2001-2017
</metadata>
<g transform="translate(0.000000,700.000000) scale(0.100000,-0.100000)"
fill="#000000" stroke="none">
<path d="M935 6976 c-133 -35 -238 -94 -338 -193 -99 -98 -159 -204 -198 -349
-21 -78 -21 -89 -23 -1409 -1 -731 0 -1335 1 -1340 3 -9 321 -14 369 -7 8 2
11 382 11 1315 0 1439 -3 1367 59 1460 50 75 146 142 224 156 19 3 987 6 2150
6 l2115 0 57 -27 c108 -50 194 -156 214 -263 4 -21 7 -226 7 -456 l0 -419 91
-1 c50 -1 116 -3 146 -6 30 -3 75 -6 100 -7 l44 -1 -1 435 c0 239 -3 458 -7
487 -31 257 -216 491 -466 591 -135 54 -24 52 -2330 51 l-2135 0 -90 -23z"/>
<path d="M1591 5632 c-108 -16 -137 -165 -44 -228 27 -18 73 -19 1623 -19
1550 0 1596 1 1623 19 51 35 72 108 45 159 -16 31 -60 67 -83 68 -49 3 -3143
4 -3164 1z"/>
<path d="M5490 4993 c-602 -81 -1074 -560 -1148 -1163 -8 -72 -8 -238 1 -323
16 -146 78 -333 158 -479 158 -287 442 -521 754 -622 224 -72 471 -83 720 -31
70 14 217 71 306 117 239 124 447 332 567 568 42 82 96 218 107 269 2 9 11 50
20 91 23 101 27 337 9 455 -45 281 -176 539 -379 740 -191 190 -412 310 -675
365 -127 26 -303 32 -440 13z m265 -197 c44 -3 91 -8 105 -11 14 -2 39 -7 55
-11 51 -10 157 -46 223 -75 331 -151 582 -477 642 -837 14 -84 18 -254 7 -327
-15 -106 -19 -123 -52 -220 -138 -414 -511 -717 -940 -763 -83 -9 -246 -8
-293 3 -15 3 -36 7 -47 9 -236 48 -445 163 -608 336 -168 177 -268 389 -302
635 -6 41 -6 234 -1 270 52 363 244 656 551 841 127 77 314 137 465 150 41 4
76 8 78 9 2 2 11 1 20 -1 9 -1 53 -5 97 -8z"/>
<path d="M5625 4530 c-2 -3 -4 -33 -4 -66 1 -118 7 -107 -73 -132 -40 -12 -96
-35 -125 -52 -164 -94 -220 -328 -118 -490 54 -86 94 -112 370 -240 49 -23
103 -51 119 -63 41 -29 67 -93 61 -152 -10 -95 -64 -141 -171 -144 -118 -4
-196 56 -210 161 l-7 49 -126 -3 -126 -3 1 -66 c3 -155 103 -261 308 -325 l85
-26 -3 -84 -2 -84 73 0 73 0 1 43 c0 23 1 62 2 86 l2 43 72 18 c200 51 291
164 291 361 0 112 -24 177 -92 244 -51 50 -75 63 -306 173 -173 82 -204 115
-199 212 5 98 60 153 154 153 99 0 153 -47 176 -152 l11 -52 126 3 127 3 -2
50 c-4 83 -41 171 -95 226 -51 52 -143 103 -208 114 -27 5 -40 12 -41 23 0 10
-2 53 -2 97 l-2 80 -68 1 c-37 0 -70 -2 -72 -6z"/>
<path d="M1549 4607 c-46 -31 -61 -63 -55 -117 3 -35 11 -51 40 -77 20 -18 46
-33 58 -34 76 -3 2620 -1 2622 2 2 2 22 38 46 79 24 41 58 96 76 123 l34 47
-1394 0 -1393 0 -34 -23z"/>
<path d="M285 3343 c-110 -20 -198 -82 -245 -173 -40 -75 -40 -84 -37 -1520
l2 -1385 27 -60 c34 -77 100 -143 175 -175 l58 -25 1060 -2 c1128 -3 1106 -4
1201 45 63 32 132 117 150 187 2 6 6 21 10 35 4 14 8 637 9 1385 1 1400 1
1428 -38 1515 -18 41 -87 115 -126 134 -14 7 -51 22 -81 32 -52 17 -113 18
-1078 19 -752 0 -1040 -3 -1087 -12z m2129 -363 c0 -30 -4 -100 -8 -155 -3
-55 -9 -136 -12 -180 -3 -44 -7 -98 -8 -120 -2 -22 -4 -57 -5 -77 l-1 -37
-1025 0 c-563 0 -1026 3 -1029 7 -4 7 -11 78 -21 237 -3 44 -7 98 -10 120 -3
22 -7 85 -10 139 -4 55 -6 102 -7 105 0 3 0 8 1 11 0 3 481 5 1069 5 l1067 0
-1 -55z m-1760 -934 c18 -8 61 -41 96 -75 34 -34 65 -61 69 -61 3 0 31 25 61
56 99 101 153 110 232 36 69 -64 58 -138 -32 -227 -33 -33 -60 -62 -60 -66 0
-4 27 -34 60 -68 71 -72 88 -103 86 -153 -4 -76 -80 -136 -158 -123 -34 6 -55
21 -114 79 l-74 72 -57 -59 c-66 -67 -99 -87 -143 -87 -53 0 -124 58 -136 113
-12 57 3 92 71 158 36 35 65 67 65 71 0 4 -21 26 -46 50 -103 95 -126 157 -84
226 37 61 102 84 164 58z m1573 -45 c53 -39 68 -112 37 -177 -31 -64 -48 -68
-339 -69 -171 -1 -272 3 -295 10 -68 23 -102 111 -70 182 20 44 38 61 77 73
15 4 147 7 293 6 263 -1 265 -1 297 -25z m-3 -391 c91 -63 62 -222 -45 -244
-17 -3 -141 -6 -276 -6 -258 0 -288 4 -327 49 -28 31 -34 115 -10 158 34 65
52 68 353 67 267 0 270 -1 305 -24z m-1341 -585 c58 -28 72 -59 75 -167 l4
-98 26 0 c179 -3 213 -11 248 -65 22 -33 21 -105 -1 -142 -30 -51 -63 -64
-175 -66 l-100 -2 -1 -80 c-1 -99 -3 -112 -27 -144 -26 -36 -69 -54 -121 -52
-92 3 -128 52 -130 179 -1 47 -4 88 -7 91 -3 3 -47 6 -99 8 -114 3 -149 18
-174 74 -32 70 -8 153 53 181 18 9 63 15 106 16 41 0 85 1 98 1 21 1 22 5 22
89 0 102 15 143 64 173 37 23 97 25 139 4z m1374 -291 c76 -56 74 -177 -4
-225 -33 -21 -46 -22 -317 -22 -212 -1 -290 2 -314 12 -95 40 -95 205 1 246
25 11 94 13 319 12 273 -2 288 -3 315 -23z"/>
<path d="M5928 1915 c-6 -6 -182 -17 -264 -17 l-81 0 -1 -427 c0 -294 -4 -441
-12 -471 -24 -92 -100 -189 -180 -230 -82 -42 -80 -42 -1232 -42 l-1108 -1 2
-190 3 -191 1080 1 c594 0 1107 2 1140 3 167 9 341 89 469 217 70 69 109 124
151 216 64 140 68 180 68 681 0 405 -1 450 -16 452 -8 1 -17 1 -19 -1z"/>
</g>
</svg>
